<svg xmlns="http://www.w3.org/2000/svg" xmlns:xlink="http://www.w3.org/1999/xlink" xml:space="preserve" width="256" height="256" viewBox="0 0 67.733 67.733"><defs><linearGradient id="a"><stop offset="0" stop-color="#00cdb5"/><stop offset=".519" stop-color="#1badc4"/><stop offset="1" stop-color="#378ed3"/></linearGradient><linearGradient xlink:href="#a" id="b" x1="-4.979" x2="81.925" y1="-5.173" y2="81.731" gradientUnits="userSpaceOnUse"/></defs><rect width="67.896" height="67.756" fill="url(#b)" rx="0" ry="0"/><path fill="#f0f4ff" d="M13.573 6.737a5.755 5.755 0 0 0-5.768 5.768v42.724a5.755 5.755 0 0 0 5.768 5.767H54.16a5.755 5.755 0 0 0 5.767-5.767V12.505a5.755 5.755 0 0 0-5.767-5.768zm1.77 7.118h17.006a1.97 1.97 0 0 1 1.975 1.976v15.713a1.97 1.97 0 0 1-1.975 1.975H15.343a1.97 1.97 0 0 1-1.975-1.975V15.831a1.97 1.97 0 0 1 1.975-1.976zM28.6 17.516a2.481 2.481 0 0 0-2.481 2.481A2.481 2.481 0 0 0 28.6 22.48a2.481 2.481 0 0 0 2.482-2.482 2.481 2.481 0 0 0-2.482-2.48zM21 21.485c-.232-.003-.461.046-.554.16l-4.85 5.915v1.038l.004.318h.009v1.68c0 .453.407.816.912.816h14.746c.505 0 .913-.363.913-.815v-1.788a.737.737 0 0 0-.044-.25l-.007-.207s-1.045-1.682-2.268-1.694c-1.031-.011-1.667.902-1.667.902a1.647 1.647 0 0 1-.656 0s-4.104-4.17-5.964-5.916c-.106-.1-.342-.156-.574-.16zm-6.83 18.087h39.365c.43 0 .777.346.777.776v1.977c0 .43-.346.777-.777.777H14.17a.774.774 0 0 1-.777-.777v-1.977c0-.43.346-.776.777-.776zm.145 8.218H40.34a.92.92 0 0 1 .921.921V50.4a.92.92 0 0 1-.921.921H14.314a.919.919 0 0 1-.92-.92V48.71c0-.51.41-.921.92-.921z"/></svg>