<?xml version="1.0" encoding="UTF-8" standalone="no"?>
<!-- Created with Inkscape (http://www.inkscape.org/) -->

<svg
   width="256"
   height="256"
   viewBox="0 0 67.733334 67.733333"
   version="1.1"
   id="svg1"
   xml:space="preserve"
   xmlns:xlink="http://www.w3.org/1999/xlink"
   xmlns="http://www.w3.org/2000/svg"
   xmlns:svg="http://www.w3.org/2000/svg"><defs
     id="defs1"><linearGradient
       id="linearGradient6"><stop
         style="stop-color:#75e6ff;stop-opacity:1;"
         offset="0.5"
         id="stop8" /><stop
         style="stop-color:#00ffef;stop-opacity:1;"
         offset="1"
         id="stop7" /></linearGradient><radialGradient
       xlink:href="#linearGradient6"
       id="radialGradient7"
       cx="64.715088"
       cy="-2.1147456"
       fx="64.715088"
       fy="-2.1147456"
       r="39.071125"
       gradientTransform="matrix(-1.5133428,-1.4880187,2.2754169,-2.2373403,175.46492,88.077066)"
       gradientUnits="userSpaceOnUse" /></defs><rect
     style="opacity:1;fill:url(#radialGradient7);fill-opacity:1;stroke-width:0.265866"
     id="rect6"
     width="67.895515"
     height="67.755768"
     x="0"
     y="0"
     rx="0"
     ry="0" /><g
     id="layer1"><path
       id="rect1"
       style="opacity:1;fill:#ffffff;fill-opacity:1;stroke-width:0.191266"
       d="m 13.572597,6.7368387 c -3.195344,0 -5.767659,2.572317 -5.767659,5.7676633 v 42.724339 c 0,3.195339 2.572315,5.767654 5.767659,5.767654 h 40.588137 c 3.195346,0 5.767661,-2.572315 5.767661,-5.767654 V 12.504502 c 0,-3.1953463 -2.572315,-5.7676633 -5.767661,-5.7676633 z m 1.770164,7.1185343 H 32.34909 c 1.094259,0 1.974933,0.881052 1.974933,1.97531 v 15.713584 c 0,1.094258 -0.880674,1.974933 -1.974933,1.974933 H 15.342761 c -1.094259,0 -1.974933,-0.880675 -1.974933,-1.974933 V 15.830683 c 0,-1.094258 0.880674,-1.97531 1.974933,-1.97531 z m 13.25748,3.660717 a 2.4814876,2.4814876 0 0 0 -2.48123,2.481228 2.4814876,2.4814876 0 0 0 2.48123,2.481606 2.4814876,2.4814876 0 0 0 2.481606,-2.481606 2.4814876,2.4814876 0 0 0 -2.481606,-2.481228 z m -7.601205,3.968618 c -0.232272,-0.0029 -0.461133,0.04667 -0.553551,0.159387 l -4.8507,5.915428 v 1.038471 l 0.0038,0.318403 0.009,-3.78e-4 v 1.680908 c 0,0.451676 0.407001,0.815329 0.912834,0.815329 h 14.745246 c 0.505831,0 0.913209,-0.363653 0.913209,-0.815329 v -1.788164 c 0,-0.08714 -0.01539,-0.170795 -0.04354,-0.2494 l -0.0078,-0.207394 c 0,0 -1.045002,-1.68156 -2.267835,-1.694406 -1.030827,-0.01081 -1.66703,0.90196 -1.66703,0.90196 -0.247957,0.04398 -0.407978,0.04398 -0.655935,0 0,0 -4.103819,-4.169241 -5.963429,-5.915428 -0.106246,-0.09977 -0.341907,-0.156157 -0.574178,-0.159387 z m -6.829383,18.086801 h 39.364778 c 0.430195,0 0.776698,0.346133 0.776698,0.776321 v 1.977559 c 0,0.430195 -0.346503,0.776321 -0.776698,0.776321 H 14.169653 c -0.430193,0 -0.776323,-0.346126 -0.776323,-0.776321 V 40.34783 c 0,-0.430188 0.34613,-0.776321 0.776323,-0.776321 z m 0.144763,8.21814 h 26.024418 c 0.510345,0 0.92146,0.411108 0.92146,0.921461 v 1.688027 c 0,0.510352 -0.411115,0.92109 -0.92146,0.92109 H 14.314416 c -0.51035,0 -0.921086,-0.410738 -0.921086,-0.92109 V 48.71111 c 0,-0.510353 0.410736,-0.921461 0.921086,-0.921461 z" /></g></svg>
